<mxfile host="app.diagrams.net" agent="Mozilla/5.0 (Macintosh; Intel Mac OS X 10_15_7) AppleWebKit/605.1.15 (KHTML, like Gecko) Version/17.6 Safari/605.1.15" version="24.7.7">
  <diagram name="ページ1" id="EkRSrRT1-DItqdIuKDjy">
    <mxGraphModel dx="700" dy="688" grid="1" gridSize="10" guides="1" tooltips="1" connect="1" arrows="1" fold="1" page="1" pageScale="1" pageWidth="827" pageHeight="1169" math="0" shadow="0">
      <root>
        <mxCell id="0" />
        <mxCell id="1" parent="0" />
        <mxCell id="-jN-wdEbNIBxrHAb71zK-5" style="edgeStyle=orthogonalEdgeStyle;rounded=0;orthogonalLoop=1;jettySize=auto;html=1;exitX=0.5;exitY=1;exitDx=0;exitDy=0;entryX=0.5;entryY=1;entryDx=0;entryDy=0;" edge="1" parent="1" source="-jN-wdEbNIBxrHAb71zK-3" target="-jN-wdEbNIBxrHAb71zK-3">
          <mxGeometry relative="1" as="geometry" />
        </mxCell>
        <mxCell id="-jN-wdEbNIBxrHAb71zK-3" value="&lt;font size=&quot;3&quot;&gt;ChatGPT&lt;/font&gt;" style="ellipse;whiteSpace=wrap;html=1;aspect=fixed;" vertex="1" parent="1">
          <mxGeometry x="600" y="240" width="120" height="120" as="geometry" />
        </mxCell>
        <mxCell id="-jN-wdEbNIBxrHAb71zK-4" value="&lt;font size=&quot;3&quot;&gt;学習済みDB&lt;/font&gt;" style="ellipse;whiteSpace=wrap;html=1;aspect=fixed;" vertex="1" parent="1">
          <mxGeometry x="600" y="480" width="120" height="120" as="geometry" />
        </mxCell>
        <mxCell id="-jN-wdEbNIBxrHAb71zK-6" value="&lt;font size=&quot;3&quot;&gt;ipc(5)&lt;/font&gt;" style="text;html=1;align=center;verticalAlign=middle;resizable=0;points=[];autosize=1;strokeColor=none;fillColor=none;" vertex="1" parent="1">
          <mxGeometry x="664" y="400" width="60" height="30" as="geometry" />
        </mxCell>
        <mxCell id="-jN-wdEbNIBxrHAb71zK-7" value="" style="endArrow=classic;startArrow=classic;html=1;rounded=0;exitX=0.5;exitY=0;exitDx=0;exitDy=0;entryX=0.5;entryY=1;entryDx=0;entryDy=0;" edge="1" parent="1" source="-jN-wdEbNIBxrHAb71zK-4" target="-jN-wdEbNIBxrHAb71zK-3">
          <mxGeometry width="50" height="50" relative="1" as="geometry">
            <mxPoint x="620" y="380" as="sourcePoint" />
            <mxPoint x="670" y="330" as="targetPoint" />
          </mxGeometry>
        </mxCell>
        <mxCell id="-jN-wdEbNIBxrHAb71zK-8" value="&lt;font size=&quot;3&quot;&gt;ネットワーク&lt;/font&gt;" style="ellipse;whiteSpace=wrap;html=1;aspect=fixed;" vertex="1" parent="1">
          <mxGeometry x="320" y="240" width="120" height="120" as="geometry" />
        </mxCell>
        <mxCell id="-jN-wdEbNIBxrHAb71zK-9" value="" style="endArrow=classic;startArrow=classic;html=1;rounded=0;exitX=1;exitY=0.5;exitDx=0;exitDy=0;entryX=0;entryY=0.5;entryDx=0;entryDy=0;" edge="1" parent="1" source="-jN-wdEbNIBxrHAb71zK-8" target="-jN-wdEbNIBxrHAb71zK-3">
          <mxGeometry width="50" height="50" relative="1" as="geometry">
            <mxPoint x="620" y="380" as="sourcePoint" />
            <mxPoint x="670" y="330" as="targetPoint" />
          </mxGeometry>
        </mxCell>
        <mxCell id="-jN-wdEbNIBxrHAb71zK-10" value="&lt;font size=&quot;3&quot;&gt;socket(2) &amp;amp;&amp;nbsp;&lt;/font&gt;&lt;div&gt;&lt;font size=&quot;3&quot;&gt;socket(7)&lt;/font&gt;&lt;/div&gt;" style="text;html=1;align=center;verticalAlign=middle;resizable=0;points=[];autosize=1;strokeColor=none;fillColor=none;" vertex="1" parent="1">
          <mxGeometry x="465" y="250" width="110" height="50" as="geometry" />
        </mxCell>
        <mxCell id="-jN-wdEbNIBxrHAb71zK-11" value="&lt;font size=&quot;3&quot;&gt;Kernel&lt;/font&gt;" style="ellipse;whiteSpace=wrap;html=1;aspect=fixed;" vertex="1" parent="1">
          <mxGeometry x="80" y="240" width="120" height="120" as="geometry" />
        </mxCell>
        <mxCell id="-jN-wdEbNIBxrHAb71zK-12" value="" style="endArrow=classic;startArrow=classic;html=1;rounded=0;exitX=1;exitY=0.5;exitDx=0;exitDy=0;entryX=0;entryY=0.5;entryDx=0;entryDy=0;" edge="1" parent="1" source="-jN-wdEbNIBxrHAb71zK-11" target="-jN-wdEbNIBxrHAb71zK-8">
          <mxGeometry width="50" height="50" relative="1" as="geometry">
            <mxPoint x="320" y="520" as="sourcePoint" />
            <mxPoint x="370" y="470" as="targetPoint" />
          </mxGeometry>
        </mxCell>
        <mxCell id="-jN-wdEbNIBxrHAb71zK-13" value="&lt;font size=&quot;3&quot;&gt;socket(2)&amp;nbsp;&lt;/font&gt;&lt;div&gt;&lt;font size=&quot;3&quot;&gt;&amp;amp;&amp;nbsp;&lt;/font&gt;&lt;span style=&quot;font-size: medium;&quot;&gt;socket(7)&lt;/span&gt;&lt;/div&gt;" style="text;html=1;align=center;verticalAlign=middle;resizable=0;points=[];autosize=1;strokeColor=none;fillColor=none;" vertex="1" parent="1">
          <mxGeometry x="215" y="250" width="100" height="50" as="geometry" />
        </mxCell>
        <mxCell id="-jN-wdEbNIBxrHAb71zK-14" value="&lt;font size=&quot;3&quot;&gt;UI&lt;/font&gt;" style="ellipse;whiteSpace=wrap;html=1;aspect=fixed;" vertex="1" parent="1">
          <mxGeometry x="80" y="480" width="120" height="120" as="geometry" />
        </mxCell>
        <mxCell id="-jN-wdEbNIBxrHAb71zK-15" value="" style="endArrow=classic;startArrow=classic;html=1;rounded=0;exitX=0.5;exitY=0;exitDx=0;exitDy=0;entryX=0.5;entryY=1;entryDx=0;entryDy=0;" edge="1" parent="1" source="-jN-wdEbNIBxrHAb71zK-14" target="-jN-wdEbNIBxrHAb71zK-11">
          <mxGeometry width="50" height="50" relative="1" as="geometry">
            <mxPoint x="320" y="520" as="sourcePoint" />
            <mxPoint x="370" y="470" as="targetPoint" />
          </mxGeometry>
        </mxCell>
        <mxCell id="-jN-wdEbNIBxrHAb71zK-16" value="&lt;font size=&quot;3&quot;&gt;write(3)&lt;/font&gt;" style="text;html=1;align=center;verticalAlign=middle;resizable=0;points=[];autosize=1;strokeColor=none;fillColor=none;" vertex="1" parent="1">
          <mxGeometry x="50" y="410" width="80" height="30" as="geometry" />
        </mxCell>
        <mxCell id="-jN-wdEbNIBxrHAb71zK-17" value="&lt;font size=&quot;3&quot;&gt;ログシステム&lt;/font&gt;" style="ellipse;whiteSpace=wrap;html=1;" vertex="1" parent="1">
          <mxGeometry x="320" y="520" width="120" height="80" as="geometry" />
        </mxCell>
        <mxCell id="-jN-wdEbNIBxrHAb71zK-18" value="" style="endArrow=classic;startArrow=classic;html=1;rounded=0;entryX=0.5;entryY=1;entryDx=0;entryDy=0;exitX=0.5;exitY=0;exitDx=0;exitDy=0;" edge="1" parent="1" source="-jN-wdEbNIBxrHAb71zK-17" target="-jN-wdEbNIBxrHAb71zK-8">
          <mxGeometry width="50" height="50" relative="1" as="geometry">
            <mxPoint x="320" y="520" as="sourcePoint" />
            <mxPoint x="370" y="470" as="targetPoint" />
          </mxGeometry>
        </mxCell>
        <mxCell id="-jN-wdEbNIBxrHAb71zK-19" value="&lt;font size=&quot;3&quot;&gt;セキュリティ&lt;/font&gt;&lt;div&gt;&lt;font size=&quot;3&quot;&gt;コンポーネント&lt;/font&gt;&lt;/div&gt;" style="ellipse;whiteSpace=wrap;html=1;" vertex="1" parent="1">
          <mxGeometry x="320" y="10" width="120" height="80" as="geometry" />
        </mxCell>
        <mxCell id="-jN-wdEbNIBxrHAb71zK-20" value="" style="endArrow=classic;startArrow=classic;html=1;rounded=0;exitX=0.5;exitY=1;exitDx=0;exitDy=0;" edge="1" parent="1" source="-jN-wdEbNIBxrHAb71zK-19">
          <mxGeometry width="50" height="50" relative="1" as="geometry">
            <mxPoint x="330" y="410" as="sourcePoint" />
            <mxPoint x="380" y="240" as="targetPoint" />
          </mxGeometry>
        </mxCell>
        <mxCell id="-jN-wdEbNIBxrHAb71zK-21" value="&lt;font size=&quot;3&quot;&gt;syslog&lt;/font&gt;" style="text;html=1;align=center;verticalAlign=middle;resizable=0;points=[];autosize=1;strokeColor=none;fillColor=none;" vertex="1" parent="1">
          <mxGeometry x="379" y="430" width="70" height="30" as="geometry" />
        </mxCell>
        <mxCell id="-jN-wdEbNIBxrHAb71zK-22" value="&lt;font size=&quot;3&quot;&gt;OpenSSL&lt;/font&gt;" style="text;html=1;align=center;verticalAlign=middle;resizable=0;points=[];autosize=1;strokeColor=none;fillColor=none;" vertex="1" parent="1">
          <mxGeometry x="379" y="140" width="90" height="30" as="geometry" />
        </mxCell>
      </root>
    </mxGraphModel>
  </diagram>
</mxfile>
